<svg width="178" height="48" viewBox="0 0 178 48" fill="none" xmlns="http://www.w3.org/2000/svg">
<path d="M12 18.16C8.72 18.16 6.784 15.728 6.784 12.4C6.784 9.04 8.752 6.64 12 6.64C15.28 6.64 17.216 9.088 17.216 12.4C17.216 15.776 15.248 18.16 12 18.16ZM12 16.752C14.304 16.752 15.552 14.768 15.552 12.4C15.552 9.968 14.256 8.048 12 8.048C9.712 8.048 8.448 10.016 8.448 12.4C8.448 14.816 9.712 16.752 12 16.752ZM20.768 18V11.056H17.92V9.84H25.12V11.056H22.272V18H20.768ZM26.3755 18V9.84H27.8795V13.136H29.3995L31.7675 9.84H33.5275L30.7435 13.712L33.9115 18H32.0395L29.3835 14.352H27.8795V18H26.3755ZM35.7885 21.584C35.3725 21.584 35.1005 21.504 35.1005 21.504V20.272C35.1005 20.272 35.3885 20.32 35.6925 20.32C36.6205 20.32 36.9405 19.792 37.3085 18.8L37.4525 18.4L34.1085 9.84H35.7565L38.2365 16.528H38.3485L40.8765 9.84H42.3965L39.0045 18.32C38.0445 20.704 37.5485 21.584 35.7885 21.584ZM42.4753 16.784H43.4833C44.2673 15.488 44.4113 14.176 44.4753 11.216L44.5073 9.84H50.2993V16.784H51.4833V20.304H50.0433V18H43.9153V20.304H42.4753V16.784ZM45.8033 11.696C45.7393 14.032 45.6433 15.472 44.8113 16.784H48.7953V11.056H45.8193L45.8033 11.696ZM54.8709 18.128C53.1749 18.128 52.0869 17.2 52.0869 15.68C52.0869 13.904 53.4469 12.912 56.2949 12.912H57.7989V12.64C57.7989 11.472 56.9189 10.96 55.5749 10.96C54.7109 10.96 53.8149 11.136 52.8389 11.664V10.256C53.6549 9.904 54.7749 9.712 55.7669 9.712C57.9909 9.712 59.3029 10.672 59.3029 12.928V18H57.7669V16.752H57.7349C57.0469 17.76 55.8949 18.128 54.8709 18.128ZM55.2389 16.848C56.7269 16.848 57.7989 15.824 57.7989 14.576V14.064H56.3589C54.3749 14.064 53.6869 14.704 53.6869 15.584C53.6869 16.4 54.2789 16.848 55.2389 16.848ZM61.3928 11.632V9.84H63.1848V11.632H61.3928ZM61.3928 18V16.208H63.1848V18H61.3928ZM69.0686 18V6.8H72.3806C75.2606 6.8 76.3806 7.92 76.3806 9.68C76.3806 10.896 75.7566 11.808 74.3166 12.192V12.224C76.0286 12.592 76.7006 13.568 76.7006 14.944C76.7006 16.88 75.5806 18 72.7006 18H69.0686ZM70.6366 16.688H72.7006C74.3006 16.688 75.0046 15.984 75.0046 14.784C75.0046 13.6 74.3006 12.896 72.7006 12.896H70.6366V16.688ZM70.6366 11.584H72.3806C74.0926 11.584 74.7646 10.912 74.7646 9.84C74.7646 8.784 74.0926 8.112 72.3806 8.112H70.6366V11.584ZM80.4503 18.128C78.7543 18.128 77.6663 17.2 77.6663 15.68C77.6663 13.904 79.0263 12.912 81.8743 12.912H83.3783V12.64C83.3783 11.472 82.4983 10.96 81.1543 10.96C80.2903 10.96 79.3943 11.136 78.4183 11.664V10.256C79.2343 9.904 80.3543 9.712 81.3463 9.712C83.5703 9.712 84.8823 10.672 84.8823 12.928V18H83.3463V16.752H83.3143C82.6263 17.76 81.4743 18.128 80.4503 18.128ZM80.8183 16.848C82.3063 16.848 83.3783 15.824 83.3783 14.576V14.064H81.9383C79.9543 14.064 79.2663 14.704 79.2663 15.584C79.2663 16.4 79.8583 16.848 80.8183 16.848ZM86.9561 18V9.84H88.4601V16.784H91.7561V9.84H93.2601V16.784H96.5561V9.84H98.0601V18H86.9561ZM102.498 18.128C100.802 18.128 99.7138 17.2 99.7138 15.68C99.7138 13.904 101.074 12.912 103.922 12.912H105.426V12.64C105.426 11.472 104.546 10.96 103.202 10.96C102.338 10.96 101.442 11.136 100.466 11.664V10.256C101.282 9.904 102.402 9.712 103.394 9.712C105.618 9.712 106.93 10.672 106.93 12.928V18H105.394V16.752H105.362C104.674 17.76 103.522 18.128 102.498 18.128ZM102.866 16.848C104.354 16.848 105.426 15.824 105.426 14.576V14.064H103.986C102.002 14.064 101.314 14.704 101.314 15.584C101.314 16.4 101.906 16.848 102.866 16.848ZM112.019 18.128C111.635 18.128 111.267 18.032 111.267 18.016V16.656C111.267 16.656 111.507 16.736 111.731 16.736C112.787 16.736 113.139 15.04 113.139 10.48V9.84H119.155V18H117.651V11.056H114.499V11.28C114.499 16.24 113.715 18.128 112.019 18.128ZM125.121 18.128C122.657 18.128 120.945 16.416 120.945 13.92C120.945 11.424 122.657 9.712 125.121 9.712C127.585 9.712 129.297 11.424 129.297 13.92C129.297 16.416 127.585 18.128 125.121 18.128ZM125.121 16.912C126.529 16.912 127.697 15.744 127.697 13.92C127.697 12.096 126.513 10.928 125.121 10.928C123.713 10.928 122.545 12.096 122.545 13.92C122.545 15.744 123.713 16.912 125.121 16.912ZM131.09 18V9.84H132.594V13.136H134.114L136.482 9.84H138.242L135.458 13.712L138.626 18H136.754L134.098 14.352H132.594V18H131.09ZM141.913 18.128C140.217 18.128 139.129 17.2 139.129 15.68C139.129 13.904 140.489 12.912 143.337 12.912H144.841V12.64C144.841 11.472 143.961 10.96 142.617 10.96C141.753 10.96 140.857 11.136 139.881 11.664V10.256C140.697 9.904 141.817 9.712 142.809 9.712C145.033 9.712 146.345 10.672 146.345 12.928V18H144.809V16.752H144.777C144.089 17.76 142.937 18.128 141.913 18.128ZM142.281 16.848C143.769 16.848 144.841 15.824 144.841 14.576V14.064H143.401C141.417 14.064 140.729 14.704 140.729 15.584C140.729 16.4 141.321 16.848 142.281 16.848ZM154.963 20.304V18H148.419V9.84H149.923V16.784H153.715V9.84H155.219V16.784H156.403V20.304H154.963ZM157.693 18V9.84H159.197V16.24H159.229L162.973 9.84H164.877V18H163.373V11.6H163.341L159.597 18H157.693ZM166.369 18L168.257 14.8C167.425 14.416 166.801 13.616 166.801 12.464C166.801 10.88 167.793 9.84 169.873 9.84H173.521V18H172.017V15.088H169.745L168.145 18H166.369ZM169.873 13.872H172.017V11.056H169.873C168.833 11.056 168.337 11.616 168.337 12.48C168.337 13.328 168.849 13.872 169.873 13.872Z" fill="#626F84"/>
<path d="M1.488 30.8H3.056V35.408H4.704L7.936 30.8H9.872L6.032 36.096L10.24 42H8.288L4.688 36.816H3.056V42H1.488V30.8ZM11.5223 45.584C11.4156 45.584 11.3196 45.5787 11.2343 45.568C11.1489 45.568 11.0796 45.5627 11.0263 45.552C10.9516 45.5413 10.8876 45.5253 10.8343 45.504V44.272C10.8876 44.2827 10.9463 44.2933 11.0103 44.304C11.0636 44.3147 11.1223 44.32 11.1863 44.32C11.2609 44.32 11.3409 44.32 11.4263 44.32C11.8849 44.32 12.2209 44.192 12.4343 43.936C12.6583 43.68 12.8609 43.3013 13.0423 42.8L13.1863 42.4L9.84225 33.84H11.4903L13.9703 40.528H14.0823L16.6103 33.84H18.1303L14.7383 42.32C14.4929 42.9173 14.2689 43.424 14.0663 43.84C13.8743 44.256 13.6609 44.592 13.4263 44.848C13.1916 45.104 12.9249 45.2907 12.6263 45.408C12.3276 45.5253 11.9596 45.584 11.5223 45.584ZM19.217 40.784C19.409 40.464 19.5637 40.1333 19.681 39.792C19.809 39.44 19.9103 39.0507 19.985 38.624C20.0597 38.1973 20.1077 37.7067 20.129 37.152C20.161 36.5973 20.1877 35.952 20.209 35.216L20.241 33.84H26.033V40.784H27.217V44.304H25.777V42H19.649V44.304H18.209V40.784H19.217ZM21.537 35.696C21.5157 36.2827 21.489 36.816 21.457 37.296C21.4357 37.776 21.393 38.2187 21.329 38.624C21.265 39.0293 21.169 39.408 21.041 39.76C20.913 40.112 20.7477 40.4533 20.545 40.784H24.529V35.056H21.553L21.537 35.696ZM30.6046 42.128C29.7513 42.128 29.074 41.9147 28.5726 41.488C28.0713 41.0507 27.8206 40.448 27.8206 39.68C27.8206 38.784 28.162 38.1013 28.8446 37.632C29.538 37.152 30.5993 36.912 32.0286 36.912H33.5326V36.64C33.5326 36.0533 33.33 35.6267 32.9246 35.36C32.5193 35.0933 31.9806 34.96 31.3086 34.96C30.8713 34.96 30.4286 35.0133 29.9806 35.12C29.5326 35.216 29.0633 35.3973 28.5726 35.664V34.256C28.978 34.0747 29.442 33.9413 29.9646 33.856C30.4873 33.76 30.9993 33.712 31.5006 33.712C32.6206 33.712 33.49 33.968 34.1086 34.48C34.7273 34.9813 35.0366 35.7973 35.0366 36.928V42H33.5006V40.752H33.4686C33.1273 41.2533 32.69 41.6107 32.1566 41.824C31.634 42.0267 31.1166 42.128 30.6046 42.128ZM30.9726 40.848C31.346 40.848 31.6873 40.7893 31.9966 40.672C32.3166 40.5547 32.5886 40.3947 32.8126 40.192C33.0366 39.9787 33.2126 39.7333 33.3406 39.456C33.4686 39.1787 33.5326 38.8853 33.5326 38.576V38.064H32.0926C31.5913 38.064 31.17 38.1013 30.8286 38.176C30.498 38.2507 30.226 38.3573 30.0126 38.496C29.7993 38.6347 29.6446 38.7947 29.5486 38.976C29.4633 39.1573 29.4206 39.36 29.4206 39.584C29.4206 39.9893 29.5593 40.304 29.8366 40.528C30.114 40.7413 30.4926 40.848 30.9726 40.848ZM37.1265 33.84H38.9185V35.632H37.1265V33.84ZM37.1265 40.208H38.9185V42H37.1265V40.208ZM49.3144 42.16C48.493 42.16 47.757 42.016 47.1064 41.728C46.4664 41.44 45.9224 41.04 45.4744 40.528C45.0264 40.016 44.685 39.408 44.4504 38.704C44.2157 38 44.0984 37.232 44.0984 36.4C44.0984 35.5573 44.2157 34.784 44.4504 34.08C44.6957 33.376 45.0424 32.768 45.4904 32.256C45.9384 31.744 46.4824 31.3493 47.1224 31.072C47.773 30.784 48.5037 30.64 49.3144 30.64C50.1357 30.64 50.8664 30.784 51.5064 31.072C52.157 31.36 52.7064 31.76 53.1544 32.272C53.6024 32.784 53.9437 33.392 54.1784 34.096C54.413 34.8 54.5304 35.568 54.5304 36.4C54.5304 37.2427 54.4077 38.016 54.1624 38.72C53.9277 39.424 53.5864 40.032 53.1384 40.544C52.6904 41.056 52.141 41.456 51.4904 41.744C50.8504 42.0213 50.125 42.16 49.3144 42.16ZM49.3144 40.752C49.8904 40.752 50.397 40.64 50.8344 40.416C51.2824 40.1813 51.6557 39.8667 51.9544 39.472C52.253 39.0667 52.477 38.6027 52.6264 38.08C52.7864 37.5573 52.8664 36.9973 52.8664 36.4C52.8664 35.792 52.7864 35.2267 52.6264 34.704C52.4664 34.1707 52.2317 33.7067 51.9224 33.312C51.6237 32.9173 51.2557 32.608 50.8184 32.384C50.381 32.16 49.8797 32.048 49.3144 32.048C48.7384 32.048 48.2317 32.1653 47.7944 32.4C47.357 32.624 46.9837 32.9333 46.6744 33.328C46.3757 33.7227 46.1464 34.1867 45.9864 34.72C45.837 35.2427 45.7624 35.8027 45.7624 36.4C45.7624 37.008 45.837 37.5787 45.9864 38.112C46.1464 38.6347 46.3757 39.0933 46.6744 39.488C46.9837 39.872 47.357 40.1813 47.7944 40.416C48.2317 40.64 48.7384 40.752 49.3144 40.752ZM58.0824 35.056H55.2344V33.84H62.4344V35.056H59.5864V42H58.0824V35.056ZM63.3595 40.784C63.5515 40.464 63.7062 40.1333 63.8235 39.792C63.9515 39.44 64.0528 39.0507 64.1275 38.624C64.2022 38.1973 64.2502 37.7067 64.2715 37.152C64.3035 36.5973 64.3302 35.952 64.3515 35.216L64.3835 33.84H70.1755V40.784H71.3595V44.304H69.9195V42H63.7915V44.304H62.3515V40.784H63.3595ZM65.6795 35.696C65.6582 36.2827 65.6315 36.816 65.5995 37.296C65.5782 37.776 65.5355 38.2187 65.4715 38.624C65.4075 39.0293 65.3115 39.408 65.1835 39.76C65.0555 40.112 64.8902 40.4533 64.6875 40.784H68.6715V35.056H65.6955L65.6795 35.696ZM73.5029 38.256C73.5882 39.0987 73.8762 39.7493 74.3669 40.208C74.8575 40.656 75.5189 40.88 76.3509 40.88C76.8415 40.88 77.3215 40.8213 77.7909 40.704C78.2709 40.576 78.6655 40.4213 78.9749 40.24V41.712C78.7189 41.7973 78.3669 41.888 77.9189 41.984C77.4709 42.08 76.9162 42.128 76.2549 42.128C74.8682 42.128 73.8015 41.744 73.0549 40.976C72.3189 40.208 71.9509 39.1413 71.9509 37.776C71.9509 37.1573 72.0469 36.5973 72.2389 36.096C72.4415 35.5947 72.7135 35.168 73.0549 34.816C73.4069 34.464 73.8175 34.192 74.2869 34C74.7562 33.808 75.2629 33.712 75.8069 33.712C76.9695 33.712 77.8815 34.0533 78.5429 34.736C79.2042 35.4187 79.5349 36.4533 79.5349 37.84V38.256H73.5029ZM75.7909 34.928C75.1615 34.928 74.6442 35.1307 74.2389 35.536C73.8442 35.9307 73.5989 36.464 73.5029 37.136H77.9349C77.9349 36.432 77.7322 35.888 77.3269 35.504C76.9215 35.12 76.4095 34.928 75.7909 34.928ZM81.026 42.128C80.834 42.128 80.658 42.112 80.498 42.08C80.3487 42.048 80.274 42.0267 80.274 42.016V40.656C80.3167 40.6773 80.3647 40.6933 80.418 40.704C80.5247 40.7253 80.6313 40.736 80.738 40.736C81.0047 40.736 81.2233 40.624 81.394 40.4C81.5753 40.176 81.7193 39.8187 81.826 39.328C81.9433 38.8267 82.0233 38.1813 82.066 37.392C82.1193 36.592 82.146 35.6213 82.146 34.48V33.84H88.162V42H86.658V35.056H83.506V35.28C83.506 36.5173 83.4527 37.5733 83.346 38.448C83.25 39.312 83.1007 40.016 82.898 40.56C82.6953 41.104 82.4393 41.504 82.13 41.76C81.8207 42.0053 81.4527 42.128 81.026 42.128ZM91.5035 38.256C91.5888 39.0987 91.8768 39.7493 92.3675 40.208C92.8582 40.656 93.5195 40.88 94.3515 40.88C94.8422 40.88 95.3222 40.8213 95.7915 40.704C96.2715 40.576 96.6662 40.4213 96.9755 40.24V41.712C96.7195 41.7973 96.3675 41.888 95.9195 41.984C95.4715 42.08 94.9168 42.128 94.2555 42.128C92.8688 42.128 91.8022 41.744 91.0555 40.976C90.3195 40.208 89.9515 39.1413 89.9515 37.776C89.9515 37.1573 90.0475 36.5973 90.2395 36.096C90.4422 35.5947 90.7142 35.168 91.0555 34.816C91.4075 34.464 91.8182 34.192 92.2875 34C92.7568 33.808 93.2635 33.712 93.8075 33.712C94.9702 33.712 95.8822 34.0533 96.5435 34.736C97.2048 35.4187 97.5355 36.4533 97.5355 37.84V38.256H91.5035ZM93.7915 34.928C93.1622 34.928 92.6448 35.1307 92.2395 35.536C91.8448 35.9307 91.5995 36.464 91.5035 37.136H95.9355C95.9355 36.432 95.7328 35.888 95.3275 35.504C94.9222 35.12 94.4102 34.928 93.7915 34.928ZM99.3786 33.84H100.883V37.152H104.979V33.84H106.483V42H104.979V38.368H100.883V42H99.3786V33.84ZM108.824 33.84H110.328V40.24H110.36L114.104 33.84H116.008V42H114.504V35.6H114.472L110.728 42H108.824V33.84ZM119.356 38.256C119.441 39.0987 119.729 39.7493 120.22 40.208C120.711 40.656 121.372 40.88 122.204 40.88C122.695 40.88 123.175 40.8213 123.644 40.704C124.124 40.576 124.519 40.4213 124.828 40.24V41.712C124.572 41.7973 124.22 41.888 123.772 41.984C123.324 42.08 122.769 42.128 122.108 42.128C120.721 42.128 119.655 41.744 118.908 40.976C118.172 40.208 117.804 39.1413 117.804 37.776C117.804 37.1573 117.9 36.5973 118.092 36.096C118.295 35.5947 118.567 35.168 118.908 34.816C119.26 34.464 119.671 34.192 120.14 34C120.609 33.808 121.116 33.712 121.66 33.712C122.823 33.712 123.735 34.0533 124.396 34.736C125.057 35.4187 125.388 36.4533 125.388 37.84V38.256H119.356ZM121.644 34.928C121.015 34.928 120.497 35.1307 120.092 35.536C119.697 35.9307 119.452 36.464 119.356 37.136H123.788C123.788 36.432 123.585 35.888 123.18 35.504C122.775 35.12 122.263 34.928 121.644 34.928ZM130.759 30.8H132.823L136.855 38.576L137.495 39.824H137.527V30.8H139.047V42H137.111L132.839 33.792L132.311 32.784H132.279V42H130.759V30.8ZM142.135 35.68C141.783 35.68 141.473 35.6213 141.207 35.504C140.94 35.376 140.716 35.2 140.535 34.976C140.353 34.752 140.215 34.4853 140.119 34.176C140.023 33.8667 139.975 33.5307 139.975 33.168C139.975 32.8053 140.023 32.4747 140.119 32.176C140.215 31.8667 140.353 31.6 140.535 31.376C140.716 31.152 140.94 30.9813 141.207 30.864C141.473 30.736 141.783 30.672 142.135 30.672C142.839 30.672 143.377 30.9013 143.751 31.36C144.124 31.808 144.311 32.4107 144.311 33.168C144.311 33.936 144.113 34.5493 143.719 35.008C143.335 35.456 142.807 35.68 142.135 35.68ZM142.135 34.752C142.348 34.752 142.519 34.704 142.647 34.608C142.785 34.512 142.892 34.3893 142.967 34.24C143.041 34.0907 143.089 33.9253 143.111 33.744C143.143 33.552 143.159 33.36 143.159 33.168C143.159 32.9653 143.143 32.768 143.111 32.576C143.089 32.384 143.041 32.2187 142.967 32.08C142.892 31.9307 142.785 31.8133 142.647 31.728C142.519 31.6427 142.348 31.6 142.135 31.6C141.921 31.6 141.745 31.648 141.607 31.744C141.479 31.8293 141.377 31.9467 141.303 32.096C141.228 32.2453 141.18 32.416 141.159 32.608C141.137 32.7893 141.127 32.976 141.127 33.168C141.127 33.36 141.137 33.552 141.159 33.744C141.18 33.9253 141.228 34.0907 141.303 34.24C141.377 34.3893 141.479 34.512 141.607 34.608C141.745 34.704 141.921 34.752 142.135 34.752ZM140.135 36.368H144.215V37.488H140.135V36.368ZM151.351 32.208H145.591V30.8H153.031V32.112L148.647 42H146.887L151.351 32.208ZM159.828 32.208H154.068V30.8H161.508V32.112L157.124 42H155.364L159.828 32.208ZM166.864 42.16C166.267 42.16 165.728 42.048 165.248 41.824C164.768 41.5893 164.358 41.2373 164.016 40.768C163.675 40.2987 163.408 39.7013 163.216 38.976C163.035 38.2507 162.944 37.392 162.944 36.4C162.944 35.3973 163.035 34.5333 163.216 33.808C163.408 33.0827 163.675 32.4853 164.016 32.016C164.368 31.5467 164.779 31.2 165.248 30.976C165.728 30.752 166.256 30.64 166.832 30.64C167.44 30.64 167.984 30.752 168.464 30.976C168.955 31.2 169.371 31.5467 169.712 32.016C170.054 32.4853 170.315 33.0827 170.496 33.808C170.688 34.5333 170.784 35.3973 170.784 36.4C170.784 37.424 170.683 38.304 170.48 39.04C170.288 39.7653 170.016 40.3627 169.664 40.832C169.323 41.2907 168.912 41.6267 168.432 41.84C167.952 42.0533 167.43 42.16 166.864 42.16ZM166.864 40.816C167.227 40.816 167.558 40.7413 167.856 40.592C168.155 40.432 168.406 40.176 168.608 39.824C168.811 39.472 168.966 39.0187 169.072 38.464C169.19 37.8987 169.248 37.2107 169.248 36.4C169.248 35.568 169.19 34.8693 169.072 34.304C168.966 33.7387 168.806 33.2853 168.592 32.944C168.379 32.592 168.123 32.3467 167.824 32.208C167.526 32.0587 167.195 31.984 166.832 31.984C166.491 31.984 166.176 32.0587 165.888 32.208C165.6 32.3467 165.35 32.5867 165.136 32.928C164.934 33.2693 164.774 33.7227 164.656 34.288C164.539 34.8533 164.48 35.5573 164.48 36.4C164.48 37.232 164.539 37.9307 164.656 38.496C164.784 39.0613 164.955 39.5147 165.168 39.856C165.382 40.1973 165.632 40.4427 165.92 40.592C166.208 40.7413 166.523 40.816 166.864 40.816ZM174.834 32.64L172.434 34.496L171.666 33.472L175.01 30.8H176.338V42H174.834V32.64Z" fill="#2A313B"/>
</svg>
