<svg width="110" height="32" viewBox="0 0 110 32" fill="none" xmlns="http://www.w3.org/2000/svg">
<rect width="110" height="32" rx="16" fill="url(#paint0_linear_82_3412)"/>
<path d="M13.7836 22V10.8H20.5356V12.208H15.3516V15.056H17.4316C20.1356 15.056 21.4156 16.384 21.4156 18.544C21.4156 20.672 20.1356 22 17.2716 22H13.7836ZM15.3516 20.592H17.2716C19.0156 20.592 19.7516 19.84 19.7516 18.544C19.7516 17.232 19.0156 16.464 17.4316 16.464H15.3516V20.592ZM25.1652 22.128C23.4692 22.128 22.3812 21.2 22.3812 19.68C22.3812 17.904 23.7412 16.912 26.5892 16.912H28.0932V16.64C28.0932 15.472 27.2132 14.96 25.8692 14.96C25.0052 14.96 24.1092 15.136 23.1332 15.664V14.256C23.9492 13.904 25.0692 13.712 26.0612 13.712C28.2852 13.712 29.5972 14.672 29.5972 16.928V22H28.0612V20.752H28.0292C27.3412 21.76 26.1892 22.128 25.1652 22.128ZM25.5332 20.848C27.0212 20.848 28.0932 19.824 28.0932 18.576V18.064H26.6532C24.6692 18.064 23.9812 18.704 23.9812 19.584C23.9812 20.4 24.5732 20.848 25.5332 20.848ZM31.6711 22V13.84H33.1751V17.152H37.2711V13.84H38.7751V22H37.2711V18.368H33.1751V22H31.6711ZM41.1167 22V13.84H42.6207V17.136H44.1407L46.5087 13.84H48.2688L45.4847 17.712L48.6528 22H46.7807L44.1248 18.352H42.6207V22H41.1167ZM53.3194 22.128C50.8554 22.128 49.1434 20.416 49.1434 17.92C49.1434 15.424 50.8554 13.712 53.3194 13.712C55.7834 13.712 57.4954 15.424 57.4954 17.92C57.4954 20.416 55.7834 22.128 53.3194 22.128ZM53.3194 20.912C54.7274 20.912 55.8954 19.744 55.8954 17.92C55.8954 16.096 54.7114 14.928 53.3194 14.928C51.9114 14.928 50.7434 16.096 50.7434 17.92C50.7434 19.744 51.9114 20.912 53.3194 20.912ZM59.2893 22V13.84H61.6093L63.8333 18.496L66.0573 13.84H68.3133V22H66.8093V15.28H66.7773L64.5533 19.92H63.0493L60.8253 15.28H60.7933V22H59.2893ZM72.7528 22.128C71.0568 22.128 69.9688 21.2 69.9688 19.68C69.9688 17.904 71.3288 16.912 74.1768 16.912H75.6808V16.64C75.6808 15.472 74.8008 14.96 73.4568 14.96C72.5928 14.96 71.6968 15.136 70.7208 15.664V14.256C71.5368 13.904 72.6568 13.712 73.6488 13.712C75.8728 13.712 77.1848 14.672 77.1848 16.928V22H75.6488V20.752H75.6168C74.9288 21.76 73.7768 22.128 72.7528 22.128ZM73.1208 20.848C74.6088 20.848 75.6808 19.824 75.6808 18.576V18.064H74.2408C72.2568 18.064 71.5688 18.704 71.5688 19.584C71.5688 20.4 72.1608 20.848 73.1208 20.848ZM81.0186 22V15.056H78.1706V13.84H85.3706V15.056H82.5226V22H81.0186ZM86.6261 22V13.84H88.1301V16.656H89.7781C92.0981 16.656 93.1381 17.712 93.1381 19.344C93.1381 20.96 92.0981 22 89.7781 22H86.6261ZM88.1301 20.784H89.7781C91.0421 20.784 91.6021 20.224 91.6021 19.344C91.6021 18.448 91.0421 17.872 89.7781 17.872H88.1301V20.784ZM94.8661 22V13.84H96.3701V22H94.8661Z" fill="white"/>
<defs>
<linearGradient id="paint0_linear_82_3412" x1="8.19564e-07" y1="16" x2="110" y2="16" gradientUnits="userSpaceOnUse">
<stop offset="0.491319" stop-color="#0037FF"/>
<stop offset="1" stop-color="#0085FF"/>
</linearGradient>
</defs>
</svg>
