<svg width="93" height="32" viewBox="0 0 93 32" fill="none" xmlns="http://www.w3.org/2000/svg">
<rect width="93" height="32" rx="16" fill="url(#paint0_linear_169_5558)"/>
<path d="M32.772 14.155L31.404 10.051C31.2056 9.45348 30.8238 8.9337 30.3131 8.56551C29.8024 8.19732 29.1886 7.99944 28.559 8H19.441C18.8114 7.99944 18.1976 8.19732 17.6869 8.56551C17.1762 8.9337 16.7944 9.45348 16.596 10.051L15.228 14.155C14.8642 14.3072 14.5536 14.5636 14.3351 14.8918C14.1166 15.2201 14 15.6057 14 16V21C14 21.738 14.404 22.376 15 22.723V25C15 25.2652 15.1054 25.5196 15.2929 25.7071C15.4804 25.8946 15.7348 26 16 26H17C17.2652 26 17.5196 25.8946 17.7071 25.7071C17.8946 25.5196 18 25.2652 18 25V23H30V25C30 25.2652 30.1054 25.5196 30.2929 25.7071C30.4804 25.8946 30.7348 26 31 26H32C32.2652 26 32.5196 25.8946 32.7071 25.7071C32.8946 25.5196 33 25.2652 33 25V22.723C33.3034 22.549 33.5556 22.2981 33.7311 21.9956C33.9067 21.6932 33.9994 21.3497 34 21V16C34 15.6057 33.8834 15.2201 33.6649 14.8918C33.4464 14.5636 33.1358 14.3072 32.772 14.155ZM19.441 10H28.558C28.989 10 29.371 10.274 29.507 10.684L30.613 14H17.387L18.492 10.684C18.5583 10.4848 18.6857 10.3115 18.856 10.1888C19.0264 10.066 19.231 9.99995 19.441 10ZM17.5 20C17.303 19.9999 17.1078 19.9611 16.9258 19.8856C16.7438 19.8101 16.5784 19.6995 16.4391 19.5602C16.2998 19.4208 16.1894 19.2553 16.114 19.0733C16.0387 18.8912 15.9999 18.696 16 18.499C16.0001 18.302 16.0389 18.1068 16.1144 17.9248C16.1899 17.7428 16.3005 17.5774 16.4398 17.4381C16.5792 17.2988 16.7447 17.1884 16.9267 17.113C17.1088 17.0377 17.304 16.9989 17.501 16.999C17.899 16.9991 18.2806 17.1573 18.5619 17.4388C18.8432 17.7203 19.0011 18.102 19.001 18.5C19.0009 18.898 18.8427 19.2796 18.5612 19.5609C18.2797 19.8422 17.898 20.0001 17.5 20ZM30.5 20C30.303 19.9999 30.1078 19.9611 29.9258 19.8856C29.7438 19.8101 29.5784 19.6995 29.4391 19.5602C29.2998 19.4208 29.1894 19.2553 29.114 19.0733C29.0387 18.8912 28.9999 18.696 29 18.499C29.0001 18.302 29.0389 18.1068 29.1144 17.9248C29.1899 17.7428 29.3005 17.5774 29.4398 17.4381C29.5792 17.2988 29.7447 17.1884 29.9267 17.113C30.1088 17.0377 30.304 16.9989 30.501 16.999C30.899 16.9991 31.2806 17.1573 31.5619 17.4388C31.8432 17.7203 32.0011 18.102 32.001 18.5C32.0009 18.898 31.8427 19.2796 31.5612 19.5609C31.2797 19.8422 30.898 20.0001 30.5 20Z" fill="white"/>
<path d="M43.328 12.64L40.928 14.496L40.16 13.472L43.504 10.8H44.832V22H43.328V12.64ZM50.7817 13.84H53.1017L55.3257 18.496L57.5498 13.84H59.8057V22H58.3018V15.28H58.2697L56.0458 19.92H54.5417L52.3177 15.28H52.2857V22H50.7817V13.84ZM62.1493 13.84H63.6533V20.24H63.6853L67.4293 13.84H69.3333V22H67.8293V15.6H67.7973L64.0533 22H62.1493V13.84ZM71.673 13.84H73.177V17.152H77.273V13.84H78.777V22H77.273V18.368H73.177V22H71.673V13.84Z" fill="white"/>
<defs>
<linearGradient id="paint0_linear_169_5558" x1="6.92904e-07" y1="16" x2="93" y2="16" gradientUnits="userSpaceOnUse">
<stop offset="0.491319" stop-color="#0037FF"/>
<stop offset="1" stop-color="#0085FF"/>
</linearGradient>
</defs>
</svg>
