<svg width="107" height="32" viewBox="0 0 107 32" fill="none" xmlns="http://www.w3.org/2000/svg">
<rect width="107" height="32" rx="16" fill="url(#paint0_linear_24_3736)"/>
<path d="M18.1706 22.16C14.8906 22.16 12.9546 19.728 12.9546 16.4C12.9546 13.04 14.9226 10.64 18.1706 10.64C21.4506 10.64 23.3866 13.088 23.3866 16.4C23.3866 19.776 21.4186 22.16 18.1706 22.16ZM18.1706 20.752C20.4746 20.752 21.7226 18.768 21.7226 16.4C21.7226 13.968 20.4266 12.048 18.1706 12.048C15.8826 12.048 14.6186 14.016 14.6186 16.4C14.6186 18.816 15.8826 20.752 18.1706 20.752ZM26.9386 22V15.056H24.0906V13.84H31.2906V15.056H28.4426V22H26.9386ZM31.2077 20.784H32.2157C32.9997 19.488 33.1437 18.176 33.2077 15.216L33.2397 13.84H39.0317V20.784H40.2157V24.304H38.7757V22H32.6477V24.304H31.2077V20.784ZM34.5357 15.696C34.4717 18.032 34.3757 19.472 33.5437 20.784H37.5277V15.056H34.5517L34.5357 15.696ZM48.3911 18.256H42.3591C42.5351 19.936 43.5591 20.88 45.2071 20.88C46.1831 20.88 47.2231 20.592 47.8311 20.24V21.712C47.3191 21.872 46.4231 22.128 45.1111 22.128C42.3591 22.128 40.8071 20.496 40.8071 17.776C40.8071 15.28 42.5031 13.712 44.6631 13.712C46.9831 13.712 48.3911 15.072 48.3911 17.84V18.256ZM44.6471 14.928C43.3991 14.928 42.5511 15.792 42.3591 17.136H46.7911C46.7911 15.728 45.8791 14.928 44.6471 14.928ZM49.8823 22.128C49.4983 22.128 49.1303 22.032 49.1303 22.016V20.656C49.1303 20.656 49.3703 20.736 49.5943 20.736C50.6503 20.736 51.0023 19.04 51.0023 14.48V13.84H57.0183V22H55.5143V15.056H52.3623V15.28C52.3623 20.24 51.5783 22.128 49.8823 22.128ZM66.3918 18.256H60.3598C60.5358 19.936 61.5598 20.88 63.2078 20.88C64.1838 20.88 65.2238 20.592 65.8318 20.24V21.712C65.3198 21.872 64.4238 22.128 63.1118 22.128C60.3598 22.128 58.8078 20.496 58.8078 17.776C58.8078 15.28 60.5038 13.712 62.6638 13.712C64.9838 13.712 66.3918 15.072 66.3918 17.84V18.256ZM62.6478 14.928C61.3998 14.928 60.5518 15.792 60.3598 17.136H64.7918C64.7918 15.728 63.8798 14.928 62.6478 14.928ZM68.2349 22V13.84H69.7389V17.152H73.8349V13.84H75.3389V22H73.8349V18.368H69.7389V22H68.2349ZM77.6805 22V13.84H79.1845V20.24H79.2165L82.9605 13.84H84.8645V22H83.3605V15.6H83.3285L79.5845 22H77.6805ZM86.3563 22L88.2443 18.8C87.4123 18.416 86.7883 17.616 86.7883 16.464C86.7883 14.88 87.7803 13.84 89.8603 13.84H93.5083V22H92.0043V19.088H89.7323L88.1323 22H86.3563ZM89.8603 17.872H92.0043V15.056H89.8603C88.8203 15.056 88.3243 15.616 88.3243 16.48C88.3243 17.328 88.8363 17.872 89.8603 17.872Z" fill="white"/>
<defs>
<linearGradient id="paint0_linear_24_3736" x1="7.97212e-07" y1="16" x2="107" y2="16" gradientUnits="userSpaceOnUse">
<stop offset="0.491319" stop-color="#0037FF"/>
<stop offset="1" stop-color="#0085FF"/>
</linearGradient>
</defs>
</svg>
