<svg width="32" height="32" viewBox="0 0 32 32" fill="none" xmlns="http://www.w3.org/2000/svg">
<g id="Slider">
<rect width="32" height="32" rx="8" fill="#F1F2F4"/>
<path id="Vector" d="M18.6667 20.0003H28M4 20.0003H6.66667M6.66667 20.0003C6.66667 21.8413 8.15905 23.3337 10 23.3337C11.8409 23.3337 13.3333 21.8413 13.3333 20.0003C13.3333 18.1594 11.8409 16.667 10 16.667C8.15905 16.667 6.66667 18.1594 6.66667 20.0003ZM26.6667 12.0003H28M4 12.0003H13.3333M22 15.3337C20.1591 15.3337 18.6667 13.8413 18.6667 12.0003C18.6667 10.1594 20.1591 8.66699 22 8.66699C23.8409 8.66699 25.3333 10.1594 25.3333 12.0003C25.3333 13.8413 23.8409 15.3337 22 15.3337Z" stroke="url(#paint0_linear_33_276)" stroke-width="2" stroke-linecap="round" stroke-linejoin="round"/>
</g>
<defs>
<linearGradient id="paint0_linear_33_276" x1="4" y1="16.0003" x2="28" y2="16.0003" gradientUnits="userSpaceOnUse">
<stop offset="0.491319" stop-color="#0037FF"/>
<stop offset="1" stop-color="#0085FF"/>
</linearGradient>
</defs>
</svg>
