<svg width="95" height="32" viewBox="0 0 95 32" fill="none" xmlns="http://www.w3.org/2000/svg">
<rect width="95" height="32" rx="16" fill="url(#paint0_linear_169_5541)"/>
<path d="M19 25L22 21M28 25L26 21L23 18L24 12M24 8C24 8.26522 24.1054 8.51957 24.2929 8.70711C24.4804 8.89464 24.7348 9 25 9C25.2652 9 25.5196 8.89464 25.7071 8.70711C25.8946 8.51957 26 8.26522 26 8C26 7.73478 25.8946 7.48043 25.7071 7.29289C25.5196 7.10536 25.2652 7 25 7C24.7348 7 24.4804 7.10536 24.2929 7.29289C24.1054 7.48043 24 7.73478 24 8Z" stroke="white" stroke-width="2" stroke-linecap="round" stroke-linejoin="round"/>
<path d="M18 16L20 13L24 12L27 15L30 16" stroke="white" stroke-width="2" stroke-linecap="round" stroke-linejoin="round"/>
<path d="M43.968 22.16C42.96 22.16 41.984 22 41.008 21.632V20.16C41.792 20.528 42.688 20.752 43.728 20.752C45.424 20.752 46.464 20.032 46.464 18.832C46.464 17.504 45.152 16.832 43.376 16.832H42.4V15.52H43.296C45.216 15.52 46.208 14.8 46.208 13.696C46.208 12.672 45.36 12.048 43.76 12.048C42.784 12.048 41.872 12.272 41.2 12.592V11.136C42 10.8 42.864 10.64 43.984 10.64C46.336 10.64 47.744 11.68 47.744 13.488C47.744 14.896 46.816 15.76 45.424 16.128V16.16C47.232 16.416 48 17.68 48 19.008C48 21.408 45.84 22.16 43.968 22.16ZM53.3286 22V13.84H55.6486L57.8726 18.496L60.0966 13.84H62.3526V22H60.8486V15.28H60.8166L58.5926 19.92H57.0886L54.8646 15.28H54.8326V22H53.3286ZM64.6961 22V13.84H66.2001V20.24H66.2321L69.9761 13.84H71.8801V22H70.3761V15.6H70.3441L66.6001 22H64.6961ZM74.2199 22V13.84H75.7239V17.152H79.8199V13.84H81.3239V22H79.8199V18.368H75.7239V22H74.2199Z" fill="white"/>
<defs>
<linearGradient id="paint0_linear_169_5541" x1="7.07805e-07" y1="16" x2="95" y2="16" gradientUnits="userSpaceOnUse">
<stop offset="0.491319" stop-color="#0037FF"/>
<stop offset="1" stop-color="#0085FF"/>
</linearGradient>
</defs>
</svg>
