<svg width="95" height="32" viewBox="0 0 95 32" fill="none" xmlns="http://www.w3.org/2000/svg">
<rect width="95" height="32" rx="16" fill="white"/>
<path d="M19 25L22 21M28 25L26 21L23 18L24 12M24 8C24 8.26522 24.1054 8.51957 24.2929 8.70711C24.4804 8.89464 24.7348 9 25 9C25.2652 9 25.5196 8.89464 25.7071 8.70711C25.8946 8.51957 26 8.26522 26 8C26 7.73478 25.8946 7.48043 25.7071 7.29289C25.5196 7.10536 25.2652 7 25 7C24.7348 7 24.4804 7.10536 24.2929 7.29289C24.1054 7.48043 24 7.73478 24 8Z" stroke="#2A313B" stroke-width="2" stroke-linecap="round" stroke-linejoin="round"/>
<path d="M18 16L20 13L24 12L27 15L30 16" stroke="#2A313B" stroke-width="2" stroke-linecap="round" stroke-linejoin="round"/>
<path d="M43.968 22.16C43.456 22.16 42.9547 22.1173 42.464 22.032C41.984 21.9467 41.4987 21.8133 41.008 21.632V20.16C41.4027 20.3413 41.824 20.4853 42.272 20.592C42.72 20.6987 43.2053 20.752 43.728 20.752C44.5813 20.752 45.248 20.5867 45.728 20.256C46.2187 19.9147 46.464 19.44 46.464 18.832C46.464 18.5013 46.384 18.2133 46.224 17.968C46.0747 17.712 45.8613 17.504 45.584 17.344C45.3067 17.1733 44.9813 17.0453 44.608 16.96C44.2347 16.8747 43.824 16.832 43.376 16.832H42.4V15.52H43.296C44.2667 15.52 44.992 15.3547 45.472 15.024C45.9627 14.6933 46.208 14.2507 46.208 13.696C46.208 13.184 46 12.784 45.584 12.496C45.168 12.1973 44.56 12.048 43.76 12.048C43.2693 12.048 42.8053 12.1013 42.368 12.208C41.9307 12.304 41.5413 12.432 41.2 12.592V11.136C41.6053 10.9653 42.0267 10.8427 42.464 10.768C42.912 10.6827 43.4187 10.64 43.984 10.64C45.168 10.64 46.0907 10.8907 46.752 11.392C47.4133 11.8827 47.744 12.5813 47.744 13.488C47.744 14.192 47.5307 14.7627 47.104 15.2C46.688 15.6373 46.128 15.9467 45.424 16.128V16.16C45.872 16.224 46.256 16.3467 46.576 16.528C46.9067 16.7093 47.1733 16.928 47.376 17.184C47.5893 17.44 47.744 17.728 47.84 18.048C47.9467 18.3573 48 18.6773 48 19.008C48 19.6053 47.8773 20.1067 47.632 20.512C47.3867 20.9173 47.072 21.2427 46.688 21.488C46.304 21.7333 45.872 21.904 45.392 22C44.912 22.1067 44.4373 22.16 43.968 22.16ZM53.3286 13.84H55.6486L57.8726 18.496L60.0966 13.84H62.3526V22H60.8486V15.28H60.8166L58.5926 19.92H57.0886L54.8646 15.28H54.8326V22H53.3286V13.84ZM64.6961 13.84H66.2001V20.24H66.2321L69.9761 13.84H71.8801V22H70.3761V15.6H70.3441L66.6001 22H64.6961V13.84ZM74.2199 13.84H75.7239V17.152H79.8199V13.84H81.3239V22H79.8199V18.368H75.7239V22H74.2199V13.84Z" fill="#2A313B"/>
</svg>
